<?xml version="1.0" encoding="UTF-8"?>
<svg width="32px" height="32px" viewBox="0 0 32 32" version="1.1" xmlns="http://www.w3.org/2000/svg" xmlns:xlink="http://www.w3.org/1999/xlink">
    <!-- Generator: Sketch 58 (84663) - https://sketch.com -->
    <title>bigcommerce</title>
    <desc>Created with Sketch.</desc>
    <defs>
        <polygon id="path-1" points="0 17.6946746 17.3525725 17.6946746 17.3525725 0.0877360947 0 0.0877360947"></polygon>
    </defs>
    <g id="bigcommerce" stroke="none" stroke-width="1" fill="none" fill-rule="evenodd">
        <g transform="translate(7.000000, 7.000000)" id="Page-1">
            <g>
                <path d="M9.14251131,10.128832 L11.33141,10.128832 C11.9538457,10.128832 12.3480549,9.78125799 12.3480549,9.22303314 C12.3480549,8.69640592 11.9538457,8.31723432 11.33141,8.31723432 L9.14251131,8.31723432 C9.06989381,8.31723432 9.00765025,8.38042959 9.00765025,8.44362485 L9.00765025,10.0024414 C9.01802417,10.0761692 9.06989381,10.128832 9.14251131,10.128832" id="Fill-1" fill="#34313F"></path>
                <path d="M9.14251131,13.7204296 L11.4040275,13.7204296 C12.0990807,13.7204296 12.5140378,13.3623231 12.5140378,12.7303704 C12.5140378,12.1826781 12.1198285,11.7403112 11.4040275,11.7403112 L9.14251131,11.7403112 C9.06989381,11.7403112 9.00765025,11.8035065 9.00765025,11.8667018 L9.00765025,13.5835065 C9.01802417,13.6677669 9.06989381,13.7204296 9.14251131,13.7204296" id="Fill-3" fill="#34313F"></path>
                <g id="Group-7" transform="translate(0.000000, 0.017589)">
                    <mask id="mask-2" fill="white">
                        <use xlink:href="#path-1"></use>
                    </mask>
                    <g id="Clip-6"></g>
                    <path d="M17.1511834,0.126390533 L10.6778526,6.67763314 L11.7359932,6.67763314 C13.3854477,6.67763314 14.3605969,7.73088757 14.3605969,8.87893491 C14.3605969,9.78473373 13.7589091,10.448284 13.1157256,10.7431953 C13.0119863,10.7853254 13.0119863,10.9327811 13.1260995,10.9749112 C13.8730223,11.2698225 14.4020926,12.0597633 14.4020926,12.9866272 C14.4020926,14.2926627 13.5410566,15.3353846 11.8708543,15.3353846 L7.28557826,15.3353846 C7.21296077,15.3353846 7.1507172,15.2721893 7.1507172,15.2089941 L7.1507172,10.2481657 L0.0445767671,17.4313609 C-0.0487885817,17.5261538 0.0134549841,17.6946746 0.148316043,17.6946746 L17.2341749,17.6946746 C17.2964184,17.6946746 17.3482881,17.6420118 17.3482881,17.5788166 L17.3482881,0.221183432 C17.3794099,0.105325444 17.2341749,0.0421301775 17.1511834,0.126390533" id="Fill-5" fill="#34313F" mask="url(#mask-2)"></path>
                </g>
            </g>
        </g>
    </g>
</svg>