<?xml version="1.0" encoding="UTF-8"?>
<svg width="32px" height="32px" viewBox="0 0 32 32" version="1.1" xmlns="http://www.w3.org/2000/svg" xmlns:xlink="http://www.w3.org/1999/xlink">
    <!-- Generator: Sketch 58 (84663) - https://sketch.com -->
    <title>Google</title>
    <desc>Created with Sketch.</desc>
    <g id="Google" stroke="none" stroke-width="1" fill="none" fill-rule="evenodd">
        <g id="Group-5" transform="translate(9.000000, 9.000000)">
            <g id="super-g">
                <path d="M7.04960836,2.784 C8.37336815,2.784 9.26631854,3.368 9.77545692,3.856 L11.7650131,1.872 C10.5430809,0.712 8.95300261,0 7.04960836,0 C4.2924282,0 1.91122715,1.616 0.751958225,3.968 L3.03133159,5.776 C3.60313316,4.04 5.18537859,2.784 7.04960836,2.784 L7.04960836,2.784 Z" id="Shape" fill="#EA4335"></path>
                <path d="M13.8172324,7.36 C13.8172324,6.768 13.770235,6.336 13.6684073,5.888 L7.04960836,5.888 L7.04960836,8.56 L10.9347258,8.56 C10.8563969,9.224 10.4334204,10.224 9.49347258,10.896 L11.7180157,12.656 C13.0496084,11.4 13.8172324,9.552 13.8172324,7.36 L13.8172324,7.36 Z" id="Shape" fill="#4285F4"></path>
                <path d="M3.03916449,8.624 C2.89033943,8.176 2.80417755,7.696 2.80417755,7.2 C2.80417755,6.704 2.89033943,6.224 3.03133159,5.776 L0.751958225,3.968 C0.274151436,4.944 0,6.04 0,7.2 C0,8.36 0.274151436,9.456 0.751958225,10.432 L3.03916449,8.624 L3.03916449,8.624 Z" id="Shape" fill="#FBBC05"></path>
                <path d="M7.04960836,14.4 C8.95300261,14.4 10.5509138,13.76 11.7180157,12.656 L9.49347258,10.896 C8.89817232,11.32 8.09921671,11.616 7.04960836,11.616 C5.18537859,11.616 3.60313316,10.36 3.03916449,8.624 L0.759791123,10.432 C1.91906005,12.784 4.2924282,14.4 7.04960836,14.4 L7.04960836,14.4 Z" id="Shape" fill="#34A853"></path>
                <polygon id="Shape" points="0 0 14.0992167 0 14.0992167 14.4 0 14.4"></polygon>
            </g>
        </g>
    </g>
</svg>