<svg width="162" height="36" viewBox="0 0 162 36" fill="none" xmlns="http://www.w3.org/2000/svg">
<g clip-path="url(#clip0_243:15477)">
<g clip-path="url(#clip1_243:15477)">
<g clip-path="url(#clip2_243:15477)">
<path d="M33.9859 15.7546C33.9854 19.3119 32.7723 22.7643 30.5439 25.5499C28.3155 28.3355 25.203 30.2903 21.7132 31.0961L18.1258 36L14.5384 31.0961C11.0485 30.2903 7.93605 28.3355 5.70765 25.5499C3.47925 22.7643 2.26608 19.3119 2.26562 15.7546C2.26562 15.3003 2.28482 14.8507 2.32321 14.4058C2.66144 10.476 4.47278 6.81528 7.39898 4.14772C10.3252 1.48016 14.1532 0 18.1258 0C22.0984 0 25.9263 1.48016 28.8526 4.14772C31.7788 6.81528 33.5901 10.476 33.9283 14.4058C33.9667 14.8501 33.9859 15.2997 33.9859 15.7546Z" fill="#FFA300"/>
<path d="M24.8674 10.5862L18.8812 14.0193C18.6515 14.151 18.3911 14.2203 18.1259 14.2203C17.8608 14.2203 17.6003 14.151 17.3707 14.0193L11.3844 10.5862C11.3272 10.5533 11.2797 10.5059 11.2467 10.449C11.2137 10.3921 11.1963 10.3275 11.1963 10.2618C11.1963 10.1962 11.2137 10.1316 11.2467 10.0747C11.2797 10.0178 11.3272 9.97043 11.3844 9.93747L17.3707 6.50528C17.6003 6.37363 17.8608 6.30432 18.1259 6.30432C18.3911 6.30432 18.6515 6.37363 18.8812 6.50528L24.8674 9.93747C24.9246 9.97043 24.9721 10.0178 25.0052 10.0747C25.0382 10.1316 25.0556 10.1962 25.0556 10.2618C25.0556 10.3275 25.0382 10.3921 25.0052 10.449C24.9721 10.5059 24.9246 10.5533 24.8674 10.5862Z" fill="white"/>
<path d="M16.9932 17.2678V23.8256C16.9933 23.8915 16.9759 23.9562 16.9428 24.0133C16.9097 24.0704 16.862 24.1178 16.8046 24.1508C16.7472 24.1837 16.682 24.2011 16.6157 24.2011C16.5494 24.2012 16.4842 24.1838 16.4268 24.1509L10.5736 20.7946C10.3446 20.6634 10.1544 20.4747 10.0218 20.2475C9.88928 20.0203 9.81913 19.7625 9.81836 19.5V12.9374C9.81826 12.8716 9.83564 12.8068 9.86874 12.7497C9.90185 12.6927 9.94951 12.6452 10.0069 12.6123C10.0644 12.5793 10.1295 12.5619 10.1958 12.5619C10.2622 12.5619 10.3273 12.5792 10.3848 12.6121L16.2379 15.9684C16.4676 16.1001 16.6583 16.2895 16.7909 16.5176C16.9235 16.7457 16.9933 17.0044 16.9932 17.2678Z" fill="white"/>
<path d="M26.4336 12.9374V19.5C26.4337 19.7633 26.3639 20.0221 26.2313 20.2501C26.0988 20.4782 25.9081 20.6676 25.6784 20.7993L19.8252 24.1556C19.7678 24.1885 19.7026 24.2058 19.6363 24.2058C19.5699 24.2058 19.5048 24.1884 19.4474 24.1554C19.3899 24.1225 19.3423 24.075 19.3092 24.018C19.2761 23.9609 19.2587 23.8961 19.2588 23.8303V17.2678C19.2587 17.0044 19.3285 16.7457 19.4611 16.5176C19.5936 16.2895 19.7844 16.1001 20.014 15.9684L25.8672 12.6121C25.9246 12.5792 25.9898 12.5619 26.0561 12.5619C26.1225 12.5619 26.1876 12.5793 26.2451 12.6123C26.3025 12.6452 26.3501 12.6927 26.3832 12.7497C26.4163 12.8068 26.4337 12.8716 26.4336 12.9374Z" fill="white"/>
</g>
<g clip-path="url(#clip3_243:15477)">
<path fill-rule="evenodd" clip-rule="evenodd" d="M56.6209 23.6681H56.67V25.4653H59.9112V10.5042H56.67V12.3501H56.6209C55.7861 11.0871 54.0673 10.1156 51.8083 10.1156C46.8975 10.1156 43.8037 14.2931 43.8037 17.9848C43.8037 21.8708 46.7011 25.9025 51.661 25.9025C53.7236 25.9025 55.5897 25.0282 56.6209 23.6681ZM56.8173 17.9783C56.8173 20.6499 54.6075 22.8358 52.0538 22.8358C49.402 22.8358 47.2412 20.6499 47.2412 17.9783C47.2412 15.3067 49.402 13.1208 52.0538 13.1208C54.6075 13.1208 56.8173 15.3067 56.8173 17.9783Z" fill="black"/>
<path fill-rule="evenodd" clip-rule="evenodd" d="M64.2796 13.6264H62.168V10.6148H64.2796V8.08885C64.2796 5.32007 65.9984 2.64844 69.9271 2.64844C70.7128 2.64844 71.7441 2.79416 72.4316 3.03704L71.1057 5.95155C70.6637 5.75725 70.2708 5.66009 69.6815 5.66009C68.3556 5.66009 67.5699 6.72875 67.5699 7.84597V10.5662H70.811V13.5778H67.5699V25.5273H64.3287V13.6264H64.2796Z" fill="black"/>
<path fill-rule="evenodd" clip-rule="evenodd" d="M74.2782 13.5274H72.4121V10.5158H74.2782V6.04688H77.5194V10.5158H79.8274V13.5274H77.5194V25.4769H74.2782V13.5274Z" fill="black"/>
<path fill-rule="evenodd" clip-rule="evenodd" d="M89.2439 25.9024C91.9448 25.9024 94.4494 24.5423 96.2664 22.2593L93.5163 20.7049C92.3868 22.2107 90.9136 23.0365 89.1457 23.0365C86.8867 23.0365 84.7259 21.3849 84.5295 19.1019H97.1012V18.519C97.1012 12.69 92.3868 10.1155 89.2439 10.1155C83.9402 10.1155 80.8955 14.0015 80.8955 17.9846C80.8955 21.9678 83.9402 25.9024 89.2439 25.9024ZM88.7152 12.9263C90.7778 12.9263 92.4966 14.1407 93.1841 16.4237H84.4428C84.983 14.1893 86.6527 12.9263 88.7152 12.9263Z" fill="black"/>
<path fill-rule="evenodd" clip-rule="evenodd" d="M99.5745 10.4199H102.619V12.0714H102.668C103.209 10.857 104.338 10.0312 105.664 10.0312C106.401 10.0312 106.99 10.2256 107.432 10.517L106.253 13.723C105.959 13.4801 105.369 13.2858 105.026 13.2858C103.847 13.2858 102.767 14.1601 102.767 15.5688V25.4781H99.5254V10.4199H99.5745Z" fill="black"/>
<path fill-rule="evenodd" clip-rule="evenodd" d="M109.822 20.9881C111 22.2025 112.866 23.174 114.585 23.174C116.451 23.174 117.581 22.1053 117.581 21.2796C117.581 20.3081 116.795 19.7737 115.617 19.5309L113.75 19.1908C109.478 18.4136 108.299 17.0535 108.299 14.9162C108.299 12.3903 110.46 10.0101 114.241 10.0101C116.353 10.0101 118.17 10.6416 120.233 12.0989L118.367 14.3819C116.795 13.0704 115.371 12.7303 114.291 12.7303C112.866 12.7303 111.491 13.4104 111.491 14.6248C111.491 15.4991 112.228 15.9849 113.456 16.1792L116.746 16.8106C119.447 17.2964 120.773 18.5594 120.773 20.7938C120.773 22.9797 118.956 25.8456 114.34 25.8456C111.786 25.8456 109.576 24.9713 107.514 23.2226L109.822 20.9881Z" fill="black"/>
<path fill-rule="evenodd" clip-rule="evenodd" d="M122.69 6.04688H125.932V12.4102H125.981C126.865 11.0015 128.534 10.1272 130.597 10.1272C133.789 10.1272 136.49 12.7502 136.49 16.4905V25.5255H133.249V17.1706C133.249 14.4504 131.825 13.3331 129.664 13.3331C127.552 13.3331 125.932 14.6447 125.932 17.122V25.5255H122.69V6.04688V6.04688Z" fill="black"/>
<path fill-rule="evenodd" clip-rule="evenodd" d="M142.738 7.24247C142.738 6.27097 141.904 5.44519 140.921 5.44519C139.89 5.44519 139.104 6.22239 139.104 7.24247C139.104 8.21397 139.939 9.03975 140.921 9.03975C141.904 9.03975 142.738 8.21397 142.738 7.24247ZM142.558 10.537H139.317V25.4981H142.558V10.537Z" fill="black"/>
<path fill-rule="evenodd" clip-rule="evenodd" d="M148.875 12.2948H148.826V10.4975H145.585V30.6562H148.826V23.6128H148.875C149.71 24.8757 151.429 25.8472 153.688 25.8472C158.599 25.8472 161.692 21.6698 161.692 17.978C161.692 14.092 158.795 10.0603 153.835 10.0603C151.773 10.0603 150.054 10.8861 148.875 12.2948ZM148.679 17.9781C148.679 15.3064 150.889 13.1206 153.442 13.1206C156.094 13.1206 158.255 15.3064 158.255 17.9781C158.255 20.6497 156.094 22.8356 153.442 22.8356C150.889 22.8356 148.679 20.6497 148.679 17.9781Z" fill="black"/>
</g>
</g>
</g>
<defs>
<clipPath id="clip0_243:15477">
<rect width="162" height="36" fill="white"/>
</clipPath>
<clipPath id="clip1_243:15477">
<rect width="161.717" height="36" fill="white"/>
</clipPath>
<clipPath id="clip2_243:15477">
<rect width="36.2517" height="36" fill="white"/>
</clipPath>
<clipPath id="clip3_243:15477">
<rect width="117.913" height="36" fill="white" transform="translate(43.8037)"/>
</clipPath>
</defs>
</svg>
