<?xml version="1.0" encoding="UTF-8"?>
<svg width="32px" height="32px" viewBox="0 0 32 32" version="1.1" xmlns="http://www.w3.org/2000/svg" xmlns:xlink="http://www.w3.org/1999/xlink">
    <!-- Generator: Sketch 58 (84663) - https://sketch.com -->
    <title>shopify</title>
    <desc>Created with Sketch.</desc>
    <defs>
        <polygon id="path-1" points="15.0899725 8.78570491 15.0899725 0 0 0 0 8.78570491 0 17.5714098 15.0899725 17.5714098"></polygon>
    </defs>
    <g id="shopify" stroke="none" stroke-width="1" fill="none" fill-rule="evenodd">
        <g transform="translate(8.000000, 7.000000)" id="Page-1">
            <g>
                <g id="Group-3">
                    <mask id="mask-2" fill="white">
                        <use xlink:href="#path-1"></use>
                    </mask>
                    <g id="Clip-2"></g>
                    <path d="M13.2166667,3.42120869 C13.2048234,3.33283611 13.1292821,3.28401097 13.0668187,3.2786224 C13.0044926,3.27328069 11.6855375,3.17319383 11.6855375,3.17319383 C11.6855375,3.17319383 10.7694847,2.24200183 10.6689764,2.13896297 C10.5683308,2.03601783 10.3718868,2.06722469 10.2956596,2.09023154 C10.284365,2.09365211 10.0955117,2.15334811 9.78301207,2.2523104 C9.47695999,1.35073211 8.93696761,0.522157257 7.9868938,0.522157257 C7.96069212,0.522157257 7.93366735,0.523281829 7.9065054,0.524828114 C7.63644062,0.158967543 7.30176332,-1.87428575e-05 7.01267603,-1.87428575e-05 C4.79952579,-1.87428575e-05 3.74222172,2.8328704 3.41065387,4.27250926 C2.55070835,4.5453584 1.93974737,4.73934697 1.86173679,4.7644624 C1.3816013,4.91857554 1.36655705,4.93413211 1.30354499,5.39726811 C1.25598871,5.74790011 0,15.6937504 0,15.6937504 L9.78699033,17.5714098 L15.0899725,16.3967481 C15.0899725,16.3967481 13.2283729,3.50958126 13.2166667,3.42120869 M9.24205942,2.42366697 C8.99623005,2.5015904 8.71683692,2.59005669 8.41394002,2.68606697 C8.41421438,2.62637097 8.41435156,2.56747154 8.41435156,2.50327726 C8.41435156,1.94286583 8.33853588,1.49172526 8.21653574,1.13406469 C8.70622821,1.19699383 9.03221735,1.76729211 9.24205942,2.42366697 M7.60946158,1.24516297 C7.74549996,1.5943424 7.83398208,2.09547954 7.83398208,2.77172183 C7.83398208,2.80634926 7.83370771,2.83793097 7.83343335,2.86998126 C7.29472133,3.04077554 6.70964194,3.22628297 6.12309929,3.41230583 C6.4524265,2.11084869 7.06974356,1.48226011 7.60946158,1.24516297 M6.95185887,0.607812114 C7.04738297,0.607812114 7.1436387,0.640986971 7.23573326,0.705930971 C6.52645882,1.04766011 5.76619857,1.90842583 5.44510225,3.6272864 C4.97584983,3.77605783 4.51720613,3.92145554 4.0931779,4.0559824 C4.4692383,2.74491954 5.36229031,0.607812114 6.95185887,0.607812114" id="Fill-1" fill="#95BF47" mask="url(#mask-2)"></path>
                </g>
                <g id="Group-6" transform="translate(9.785619, 2.061714)" fill="#5E8E3E">
                    <path d="M3.28120477,1.21692686 C3.21887861,1.21153829 1.89987784,1.11149829 1.89987784,1.11149829 C1.89987784,1.11149829 0.983870778,0.180259429 0.883362416,0.0773611429 C0.845728939,0.0388445714 0.794971759,0.0192114286 0.74192822,0.0107302857 L0.00192511467,15.5095737 L5.30435854,14.3350057 C5.30435854,14.3350057 3.44275893,1.44797943 3.43105277,1.35951314 C3.41920943,1.27114057 3.34362238,1.22231543 3.28120477,1.21692686" id="Fill-4"></path>
                </g>
                <path d="M7.98688008,6.27891806 L7.333027,8.2704872 C7.333027,8.2704872 6.76011104,7.95743463 6.0578786,7.95743463 C5.02837666,7.95743463 4.97656775,8.61901063 4.97656775,8.78572834 C4.97656775,9.6953192 7.29210116,10.0438426 7.29210116,12.1744369 C7.29210116,13.8507043 6.25391106,14.9301055 4.85383597,14.9301055 C3.17368186,14.9301055 2.31469661,13.8594198 2.31469661,13.8594198 L2.76451497,12.3376403 C2.76451497,12.3376403 3.64764417,13.1139695 4.39286018,13.1139695 C4.87962611,13.1139695 5.07785348,12.7214472 5.07785348,12.4346346 C5.07785348,11.2480712 3.17811739,11.1951226 3.17811739,9.24544377 C3.17811739,7.60450663 4.32820193,6.01651806 6.65022861,6.01651806 C7.54492679,6.01651806 7.98688008,6.27891806 7.98688008,6.27891806" id="Fill-7" fill="#FFFFFF"></path>
            </g>
        </g>
    </g>
</svg>